<svg xmlns="http://www.w3.org/2000/svg" xmlns:xlink="http://www.w3.org/1999/xlink" id="vertical-logo" width="140" height="41" viewBox="0 0 140 41"><defs><clipPath id="clip-path"><rect id="Rectangle_5969" data-name="Rectangle 5969" width="140" height="41" fill="none"/></clipPath></defs><g id="Group_162348" data-name="Group 162348" clip-path="url(#clip-path)"><path id="Path_18863" data-name="Path 18863" d="M59.513,13.514v.567a2.233,2.233,0,0,0-.972.675,5.7,5.7,0,0,0-.918,1.782l-3.806,10.99c-.361-.036-.721-.055-1.08-.055s-.73.019-1.108.055L46.877,15.593a2.491,2.491,0,0,0-.837-1.268,1.556,1.556,0,0,0-.729-.244v-.567q.972.054,2.025.1t2.3.041q.837,0,1.769-.041t1.741-.1v.567a7.5,7.5,0,0,0-.931.054.821.821,0,0,0-.594.3q-.177.243.013.892l3.078,8.4-.3.459,1.809-5.211a7.021,7.021,0,0,0,.486-2.7,2.478,2.478,0,0,0-.607-1.593,2.052,2.052,0,0,0-1.391-.594v-.567c.27.019.572.036.9.055s.666.031,1,.04.607.013.823.013c.342,0,.72-.008,1.135-.027a8.407,8.407,0,0,0,.944-.081" fill="#040504"/><path id="Path_18864" data-name="Path 18864" d="M66.749,13.136a4.931,4.931,0,0,1,3.726,1.4q1.35,1.406,1.35,4.617H63.158l-.027-.513h5.022a13.42,13.42,0,0,0-.108-2.444,5.486,5.486,0,0,0-.526-1.794,1.084,1.084,0,0,0-.959-.675q-.81,0-1.377,1.16a11.012,11.012,0,0,0-.7,3.942l.109.19a3.384,3.384,0,0,0-.054.607v.661a7.327,7.327,0,0,0,.5,2.97,3.375,3.375,0,0,0,1.256,1.566,2.977,2.977,0,0,0,1.565.459,4.521,4.521,0,0,0,1.027-.134,3.568,3.568,0,0,0,1.188-.568,4.818,4.818,0,0,0,1.188-1.268l.459.161A6.757,6.757,0,0,1,70.7,25.543a5.9,5.9,0,0,1-1.822,1.674,5.129,5.129,0,0,1-2.673.661,6.719,6.719,0,0,1-3.186-.742,5.276,5.276,0,0,1-2.227-2.35,9.2,9.2,0,0,1-.824-4.2,8.806,8.806,0,0,1,.891-4.212,5.74,5.74,0,0,1,2.43-2.443,7.407,7.407,0,0,1,3.456-.8" fill="#040504"/><path id="Path_18865" data-name="Path 18865" d="M82.625,13.136a2.438,2.438,0,0,1,1.458.392,2.235,2.235,0,0,1,.783,1,3.215,3.215,0,0,1,.243,1.2,2.5,2.5,0,0,1-.634,1.782,2.175,2.175,0,0,1-1.661.675,2.419,2.419,0,0,1-1.647-.5,1.693,1.693,0,0,1-.567-1.337,2.411,2.411,0,0,1,.365-1.377,3.537,3.537,0,0,1,.9-.918,1.472,1.472,0,0,0-.783.108,2.148,2.148,0,0,0-.81.406,2.983,2.983,0,0,0-.648.7,3.426,3.426,0,0,0-.418.878,3.151,3.151,0,0,0-.148.959v7.613a2.145,2.145,0,0,0,.58,1.755,2.976,2.976,0,0,0,1.849.459V27.5q-.621-.026-1.836-.067t-2.51-.041q-1.162,0-2.336.041t-1.742.067v-.567a1.632,1.632,0,0,0,1.255-.4,2.372,2.372,0,0,0,.366-1.539V16.457a3.585,3.585,0,0,0-.352-1.8,1.362,1.362,0,0,0-1.269-.58v-.567c.576.055,1.134.081,1.674.081q1.215,0,2.309-.094a17.531,17.531,0,0,0,2.012-.284v2.214a4.052,4.052,0,0,1,.849-1.215,3.808,3.808,0,0,1,1.216-.8,3.9,3.9,0,0,1,1.5-.284" fill="#040504"/><path id="Path_18866" data-name="Path 18866" d="M91.724,9.113v4.4H94.64v.54H91.724V25.1a1.478,1.478,0,0,0,.243.959.909.909,0,0,0,.73.284,1.652,1.652,0,0,0,.85-.27,2.527,2.527,0,0,0,.823-.918l.432.27A4.575,4.575,0,0,1,93.385,27.2a3.856,3.856,0,0,1-2.363.675,5.015,5.015,0,0,1-1.579-.23,2.87,2.87,0,0,1-1.148-.688,2.808,2.808,0,0,1-.769-1.472,12.02,12.02,0,0,1-.176-2.281V14.053H85.19v-.54h2.16V10.138A10.587,10.587,0,0,0,89.686,9.9a7.685,7.685,0,0,0,2.038-.783" fill="#040504"/><path id="Path_18867" data-name="Path 18867" d="M101.336,13.217V24.989a2.375,2.375,0,0,0,.364,1.54,1.634,1.634,0,0,0,1.256.4V27.5q-.54-.026-1.593-.067t-2.133-.041q-1.08,0-2.2.041t-1.687.067v-.567a1.634,1.634,0,0,0,1.256-.4,2.375,2.375,0,0,0,.364-1.54V16.457a3.575,3.575,0,0,0-.351-1.8,1.362,1.362,0,0,0-1.269-.58v-.567c.576.055,1.134.081,1.674.081q1.215,0,2.308-.094a17.436,17.436,0,0,0,2.012-.284M98.96,6.467a3.114,3.114,0,0,1,1.984.567,1.977,1.977,0,0,1,.716,1.647,1.975,1.975,0,0,1-.716,1.647,3.755,3.755,0,0,1-3.968,0,1.973,1.973,0,0,1-.716-1.647,1.974,1.974,0,0,1,.716-1.647,3.113,3.113,0,0,1,1.984-.567" fill="#040504"/><path id="Path_18868" data-name="Path 18868" d="M111.137,13.136a8.189,8.189,0,0,1,2.025.229,5.3,5.3,0,0,1,1.458.582,3.516,3.516,0,0,1,1.134,1.106,2.852,2.852,0,0,1,.432,1.566,2.357,2.357,0,0,1-.675,1.715,2.284,2.284,0,0,1-1.7.689,2.213,2.213,0,0,1-1.66-.621,2.181,2.181,0,0,1-.608-1.594,2.272,2.272,0,0,1,.594-1.593,2.884,2.884,0,0,1,1.4-.864,1.63,1.63,0,0,0-.553-.351,2.149,2.149,0,0,0-.8-.135,2.291,2.291,0,0,0-1.539.527,3.822,3.822,0,0,0-1.013,1.431,8.328,8.328,0,0,0-.566,2.025,14.784,14.784,0,0,0-.176,2.309,7.5,7.5,0,0,0,.526,3.118,3.151,3.151,0,0,0,2.957,2.011,4.438,4.438,0,0,0,1-.134,3.685,3.685,0,0,0,1.2-.568,4.554,4.554,0,0,0,1.2-1.3l.459.162a7.131,7.131,0,0,1-1,2.08,5.715,5.715,0,0,1-1.809,1.687,5.185,5.185,0,0,1-2.7.661,7.073,7.073,0,0,1-3.227-.728A5.353,5.353,0,0,1,105.2,24.8a8.986,8.986,0,0,1-.864-4.239,8.655,8.655,0,0,1,.891-4.171,5.814,5.814,0,0,1,2.443-2.443,7.389,7.389,0,0,1,3.47-.811" fill="#040504"/><path id="Path_18869" data-name="Path 18869" d="M121.235,27.689a4.036,4.036,0,0,1-2.052-.472A2.9,2.9,0,0,1,118,25.961a3.788,3.788,0,0,1-.379-1.674,3.1,3.1,0,0,1,.527-1.863,3.941,3.941,0,0,1,1.363-1.175,10.805,10.805,0,0,1,1.755-.742q.917-.3,1.755-.58a4.743,4.743,0,0,0,1.35-.675,1.221,1.221,0,0,0,.513-1.013V16a3.513,3.513,0,0,0-.175-1.12,1.763,1.763,0,0,0-.622-.864,1.989,1.989,0,0,0-1.228-.338,3.367,3.367,0,0,0-.945.134,2.207,2.207,0,0,0-.81.433,2.5,2.5,0,0,1,1.282.891,2.238,2.238,0,0,1,.419,1.323,1.956,1.956,0,0,1-.688,1.579,2.45,2.45,0,0,1-1.634.581,1.959,1.959,0,0,1-1.579-.648,2.329,2.329,0,0,1-.554-1.566,2.248,2.248,0,0,1,.4-1.364,3.862,3.862,0,0,1,1.188-1.012,6.007,6.007,0,0,1,1.891-.676,12.317,12.317,0,0,1,2.348-.215,10.033,10.033,0,0,1,2.335.256,3.78,3.78,0,0,1,1.823,1.013,2.88,2.88,0,0,1,.756,1.512,13.044,13.044,0,0,1,.162,2.267v7.29a2.439,2.439,0,0,0,.121.932.407.407,0,0,0,.392.257.854.854,0,0,0,.459-.135q.216-.135.432-.3l.3.459a4.167,4.167,0,0,1-1.4.742,5.784,5.784,0,0,1-1.755.257,4.053,4.053,0,0,1-1.687-.284,1.773,1.773,0,0,1-.864-.769,2.534,2.534,0,0,1-.284-1.08,4.8,4.8,0,0,1-1.485,1.552,4.018,4.018,0,0,1-2.241.581m2.241-1.944a1.649,1.649,0,0,0,.77-.176,1.819,1.819,0,0,0,.634-.607V19.346a2.989,2.989,0,0,1-.581.715q-.365.339-.769.675a7.678,7.678,0,0,0-.77.742,3.377,3.377,0,0,0-.594.959,3.493,3.493,0,0,0-.229,1.337,2.165,2.165,0,0,0,.432,1.512,1.453,1.453,0,0,0,1.107.459" fill="#040504"/><path id="Path_18870" data-name="Path 18870" d="M137.6,6.386v18.6a2.374,2.374,0,0,0,.364,1.539,1.634,1.634,0,0,0,1.256.4V27.5c-.343-.017-.864-.04-1.566-.067s-1.422-.041-2.16-.041q-1.08,0-2.2.041T131.6,27.5v-.567a1.634,1.634,0,0,0,1.256-.4,2.374,2.374,0,0,0,.364-1.539V9.6a3.612,3.612,0,0,0-.338-1.769,1.356,1.356,0,0,0-1.282-.58V6.683c.576.055,1.134.081,1.674.081q1.242,0,2.322-.094a17.492,17.492,0,0,0,2-.284" fill="#040504"/><path id="Path_18871" data-name="Path 18871" d="M32.969,32.972a17.9,17.9,0,1,1,0-25.314A17.9,17.9,0,0,1,32.969,32.972Z" fill="none" stroke="#040504" stroke-linecap="round" stroke-linejoin="round" stroke-width="2"/><path id="Path_18872" data-name="Path 18872" d="M11.117,11.117a13.027,13.027,0,1,1,0,18.423,13.028,13.028,0,0,1,0-18.423l0,0m4.26,6.407,5.491-.117-6.782,6.782a1.257,1.257,0,0,0,0,1.779l0,0,.594.593a1.258,1.258,0,0,0,1.779,0l0,0,6.782-6.781-.117,5.491a1.261,1.261,0,0,0,1.236,1.287h.022l.813,0a1.255,1.255,0,0,0,1.26-1.251V25.3l0-9.854a1.254,1.254,0,0,0-1.25-1.259H25.2l-9.861,0a1.255,1.255,0,0,0-1.26,1.25v.009l0,.814a1.267,1.267,0,0,0,1.273,1.263h.019Z" fill="#040504"/></g></svg>